<?xml version="1.0" encoding="UTF-8" standalone="no"?>
<!DOCTYPE svg PUBLIC "-//W3C//DTD SVG 1.1//EN"
 "http://www.w3.org/Graphics/SVG/1.1/DTD/svg11.dtd">
<!-- Generated by graphviz version 2.44.1 (20200629.0846)
 -->
<!-- Pages: 1 -->
<svg width="242pt" height="111pt"
 viewBox="0.00 0.00 242.00 111.50" xmlns="http://www.w3.org/2000/svg" xmlns:xlink="http://www.w3.org/1999/xlink">
<g id="graph0" class="graph" transform="scale(1 1) rotate(0) translate(4 107.5)">
<polygon fill="white" stroke="transparent" points="-4,4 -4,-107.5 238,-107.5 238,4 -4,4"/>
<!-- &#45;1 -->
<g id="node1" class="node">
<title>&#45;1</title>
<polygon fill="lightgray" stroke="black" points="24,-103.5 0,-103.5 0,-85.5 24,-85.5 24,-103.5"/>
<text text-anchor="middle" x="12" y="-92.3" font-family="Times New Roman,serif" font-size="9.00">&#45;1</text>
</g>
<!-- 0 -->
<g id="node7" class="node">
<title>0</title>
<ellipse fill="lightblue" stroke="black" cx="96" cy="-24.75" rx="14.7" ry="14.7"/>
<text text-anchor="middle" x="96" y="-22.55" font-family="Times New Roman,serif" font-size="9.00">0</text>
</g>
<!-- &#45;1&#45;&gt;0 -->
<g id="edge1" class="edge">
<title>&#45;1&#45;&gt;0</title>
<path fill="none" stroke="green" stroke-width="0.64" d="M21.97,-85.46C35.36,-74.65 59.46,-55.22 76.53,-41.46"/>
<polygon fill="green" stroke="green" stroke-width="0.64" points="79.12,-43.86 84.71,-34.85 74.73,-38.41 79.12,-43.86"/>
</g>
<!-- &#45;2 -->
<g id="node2" class="node">
<title>&#45;2</title>
<polygon fill="lightgray" stroke="black" points="192,-103.5 168,-103.5 168,-85.5 192,-85.5 192,-103.5"/>
<text text-anchor="middle" x="180" y="-92.3" font-family="Times New Roman,serif" font-size="9.00">&#45;2</text>
</g>
<!-- &#45;2&#45;&gt;0 -->
<g id="edge2" class="edge">
<title>&#45;2&#45;&gt;0</title>
<path fill="none" stroke="green" stroke-width="0.12" d="M170.03,-85.46C156.64,-74.65 132.54,-55.22 115.47,-41.46"/>
<polygon fill="green" stroke="green" stroke-width="0.12" points="117.27,-38.41 107.29,-34.85 112.88,-43.86 117.27,-38.41"/>
</g>
<!-- 1172 -->
<g id="node8" class="node">
<title>1172</title>
<ellipse fill="white" stroke="black" cx="167" cy="-24.75" rx="25" ry="25"/>
<text text-anchor="middle" x="167" y="-22.55" font-family="Times New Roman,serif" font-size="9.00">1172</text>
</g>
<!-- &#45;2&#45;&gt;1172 -->
<g id="edge7" class="edge">
<title>&#45;2&#45;&gt;1172</title>
<path fill="none" stroke="green" stroke-width="0.26" stroke-dasharray="1,5" d="M178.46,-85.46C177.19,-78.85 175.3,-69.02 173.42,-59.22"/>
<polygon fill="green" stroke="green" stroke-width="0.26" points="176.82,-58.33 171.49,-49.17 169.94,-59.65 176.82,-58.33"/>
</g>
<!-- &#45;3 -->
<g id="node3" class="node">
<title>&#45;3</title>
<polygon fill="lightgray" stroke="black" points="150,-103.5 126,-103.5 126,-85.5 150,-85.5 150,-103.5"/>
<text text-anchor="middle" x="138" y="-92.3" font-family="Times New Roman,serif" font-size="9.00">&#45;3</text>
</g>
<!-- &#45;3&#45;&gt;0 -->
<g id="edge5" class="edge">
<title>&#45;3&#45;&gt;0</title>
<path fill="none" stroke="red" stroke-width="0.1" stroke-dasharray="1,5" d="M133.02,-85.46C127.14,-75.98 117.15,-59.86 109.03,-46.76"/>
<polygon fill="red" stroke="red" stroke-width="0.1" points="111.77,-44.55 103.53,-37.89 105.82,-48.23 111.77,-44.55"/>
</g>
<!-- &#45;3&#45;&gt;1172 -->
<g id="edge6" class="edge">
<title>&#45;3&#45;&gt;1172</title>
<path fill="none" stroke="green" stroke-width="0.17" d="M141.44,-85.46C144.47,-78.38 149.09,-67.58 153.58,-57.1"/>
<polygon fill="green" stroke="green" stroke-width="0.17" points="156.89,-58.26 157.61,-47.69 150.45,-55.51 156.89,-58.26"/>
</g>
<!-- &#45;4 -->
<g id="node4" class="node">
<title>&#45;4</title>
<polygon fill="lightgray" stroke="black" points="66,-103.5 42,-103.5 42,-85.5 66,-85.5 66,-103.5"/>
<text text-anchor="middle" x="54" y="-92.3" font-family="Times New Roman,serif" font-size="9.00">&#45;4</text>
</g>
<!-- &#45;4&#45;&gt;0 -->
<g id="edge3" class="edge">
<title>&#45;4&#45;&gt;0</title>
<path fill="none" stroke="red" stroke-width="0.79" d="M58.98,-85.46C64.86,-75.98 74.85,-59.86 82.97,-46.76"/>
<polygon fill="red" stroke="red" stroke-width="0.79" points="86.18,-48.23 88.47,-37.89 80.23,-44.55 86.18,-48.23"/>
</g>
<!-- &#45;5 -->
<g id="node5" class="node">
<title>&#45;5</title>
<polygon fill="lightgray" stroke="black" points="234,-103.5 210,-103.5 210,-85.5 234,-85.5 234,-103.5"/>
<text text-anchor="middle" x="222" y="-92.3" font-family="Times New Roman,serif" font-size="9.00">&#45;5</text>
</g>
<!-- &#45;6 -->
<g id="node6" class="node">
<title>&#45;6</title>
<polygon fill="lightgray" stroke="black" points="108,-103.5 84,-103.5 84,-85.5 108,-85.5 108,-103.5"/>
<text text-anchor="middle" x="96" y="-92.3" font-family="Times New Roman,serif" font-size="9.00">&#45;6</text>
</g>
<!-- &#45;6&#45;&gt;0 -->
<g id="edge4" class="edge">
<title>&#45;6&#45;&gt;0</title>
<path fill="none" stroke="green" stroke-width="0.79" stroke-dasharray="1,5" d="M96,-85.46C96,-76.73 96,-62.37 96,-49.91"/>
<polygon fill="green" stroke="green" stroke-width="0.79" points="99.5,-49.65 96,-39.65 92.5,-49.65 99.5,-49.65"/>
</g>
</g>
</svg>
